<svg width="40" height="30" viewBox="0 0 40 30" fill="none" xmlns="http://www.w3.org/2000/svg">
<path d="M34.6085 0H4.82055C2.1615 0 0 2.1615 0 4.82055V25.1794C0 27.8385 2.1615 30 4.82055 30H34.6003C37.2594 30 39.4209 27.8385 39.4209 25.1794V4.82871C39.429 2.16966 37.2675 0 34.6085 0ZM37.2268 25.1794C37.2268 26.6232 36.0522 27.7977 34.6085 27.7977H4.82055C3.37684 27.7977 2.20228 26.6232 2.20228 25.1794V4.82871C2.20228 3.38499 3.37684 2.21044 4.82055 2.21044H34.6003C36.044 2.21044 37.2186 3.38499 37.2186 4.82871V25.1794H37.2268Z" fill="white"/>
<path d="M24.8617 14.7472L34.5028 6.10121C34.9514 5.69338 34.9922 5.00006 34.5844 4.54329C34.1765 4.09468 33.4832 4.0539 33.0264 4.46173L19.7312 16.3948L17.1374 14.0784C17.1292 14.0702 17.1211 14.0621 17.1211 14.0539C17.064 13.9968 17.0069 13.9479 16.9416 13.8989L6.38697 4.45357C5.9302 4.04574 5.23689 4.08652 4.82906 4.54329C4.42123 5.00006 4.46201 5.69338 4.91878 6.10121L14.6741 14.8206L4.95957 23.9152C4.51911 24.3312 4.49464 25.0245 4.91063 25.4732C5.13085 25.7015 5.42449 25.8239 5.71813 25.8239C5.9873 25.8239 6.25647 25.726 6.46854 25.5303L16.3299 16.3051L19.0052 18.695C19.2173 18.8826 19.4783 18.9723 19.7393 18.9723C20.0003 18.9723 20.2695 18.8745 20.4734 18.6869L23.2222 16.2236L33.0264 25.5384C33.2385 25.7423 33.5158 25.8402 33.785 25.8402C34.0787 25.8402 34.3641 25.726 34.5844 25.4976C35.0003 25.0572 34.984 24.3557 34.5436 23.9397L24.8617 14.7472Z" fill="white"/>
</svg>
